
        <svg xmlns="http://www.w3.org/2000/svg" xmlns:xlink="http://www.w3.org/1999/xlink" version="1.1" width="3147.783251231527" height="931.0344827586207" viewBox="0 0 3147.783251231527 931.0344827586207">
			
			<g transform="scale(7.389162561576355) translate(10, 10)">
				<defs id="SvgjsDefs1083"/><g id="SvgjsG1084" featureKey="symbolFeature-0" transform="matrix(1.1212214561724838,0,0,1.1212214561724838,-16.846801048923943,-0.8467989103637343)" fill="#fff"><title xmlns="http://www.w3.org/2000/svg">Artboard 2</title><g xmlns="http://www.w3.org/2000/svg" data-name="Solid Pt.2"><path d="M51,48a3,3,0,1,1-3-3A3.0033,3.0033,0,0,1,51,48Zm25,1h4.9746A33.0282,33.0282,0,0,1,49,80.9746V76a1,1,0,0,0-2,0v4.9746A33.0282,33.0282,0,0,1,15.0254,49H20a1,1,0,0,0,0-2H15.0254A33.0282,33.0282,0,0,1,47,15.0254V20a1,1,0,0,0,2,0V15.0254A33.0282,33.0282,0,0,1,80.9746,47H76a1,1,0,0,0,0,2ZM64.2632,31.7368a.9974.9974,0,0,0-1.1665-.1811L42.5908,42.1621a1.0035,1.0035,0,0,0-.4287.4287L31.5557,63.0967a1,1,0,0,0,1.3476,1.3476L53.4092,53.8379a1.0035,1.0035,0,0,0,.4287-.4287L64.4443,32.9033A.9994.9994,0,0,0,64.2632,31.7368Z"/></g></g><g id="SvgjsG1085" featureKey="textGroupContainer" transform="matrix(1,0,0,1,405,0)" fill="#fff"><rect xmlns="http://www.w3.org/2000/svg" y="0" height="1" width="1" opacity="0"/><rect xmlns="http://www.w3.org/2000/svg" y="0" x="-311" width="3" height="106"/></g><g id="SvgjsG1086" featureKey="nameFeature-0" transform="matrix(0.8285874294957578,0,0,0.8285874294957578,108.68565028201697,17.38838708217329)" fill="#fff"><path d="M4 12 l3 0 l0 25.4 l15 0 l0 2.6 l-18 0 l0 -28 z M26.505000000000003 33.8 l0 -15.6 c0 -3.8 2.8 -6.6 7 -6.6 l7 0 c4.2 0 7 2.8 7 6.6 l0 15.6 c0 3.8 -2.8 6.6 -7 6.6 l-7 0 c-4.2 0 -7 -2.8 -7 -6.6 z M44.505 33.8 l0 -15.6 c0 -2.2 -1.8 -4 -4 -4 l-7 0 c-2.2 0 -4 1.8 -4 4 l0 15.6 c0 2.2 1.8 4 4 4 l7 0 c2.2 0 4 -1.8 4 -4 z M55.61000000000001 40 l0 -28 l12.8 0 c4.2 0 7 2.8 7 6.6 l0 14.8 c0 3.8 -2.8 6.6 -7 6.6 l-12.8 0 z M58.61000000000001 14.600000000000001 l0 22.8 l9.8 0 c2.2 0 4 -1.8 4 -4 l0 -14.8 c0 -2.2 -1.8 -4 -4 -4 l-9.8 0 z M83.51500000000001 40 l0 -28 l18.2 0 l0 1.8 l-0.8 0.8 l-14.4 0 l0 9.8 l11.4 0 l0 2.6 l-11.4 0 l0 10.4 l15.2 0 l0 2.6 l-18.2 0 z M106.02000000000002 19.8 l0 -1.2 c0 -3.8 2.8 -6.6 7 -6.6 l11 0 l0 1.8 l-0.8 0.8 l-10.2 0 c-2.2 0 -4 1.8 -4 4 l0 1.2 c0 2.2 1.2 3.36 3.2 3.8 l7.4 1.6 c2.8 0.6 5 2.8 5 6.4 l0 1.8 c0 3.8 -2.8 6.6 -7 6.6 l-12 0 l0 -2.6 l12 0 c2.2 0 4 -1.8 4 -4 l0 -1.8 c0 -2.2 -1.2 -3.36 -3.2 -3.8 l-7.4 -1.6 c-2.8 -0.6 -5 -2.8 -5 -6.4 z  M139.32500000000002 14.600000000000001 l0 25.4 l-3 0 l0 -25.4 l-8.8 0 l0 -2.6 l20.6 0 l0 1.8 l-0.8 0.8 l-8 0 z M152.63 33.8 l0 -15.6 c0 -3.8 2.8 -6.6 7 -6.6 l7 0 c4.2 0 7 2.8 7 6.6 l0 15.6 c0 3.8 -2.8 6.6 -7 6.6 l-7 0 c-4.2 0 -7 -2.8 -7 -6.6 z M170.63 33.8 l0 -15.6 c0 -2.2 -1.8 -4 -4 -4 l-7 0 c-2.2 0 -4 1.8 -4 4 l0 15.6 c0 2.2 1.8 4 4 4 l7 0 c2.2 0 4 -1.8 4 -4 z M198.13500000000002 40 l-13.6 -23 l-0.2 0 l0.4 5.2 l0 17.8 l-3 0 l0 -28 l3.2 0 l13.6 23 l0.2 0 l-0.4 -5.2 l0 -17.8 l3 0 l0 28 l-3.2 0 z M210.24 40 l0 -28 l18.2 0 l0 1.8 l-0.8 0.8 l-14.4 0 l0 9.8 l11.4 0 l0 2.6 l-11.4 0 l0 10.4 l15.2 0 l0 2.6 l-18.2 0 z M245.05 12 l3 0 l0 25.4 l15 0 l0 2.6 l-18 0 l0 -28 z M270.355 32.8 l-2.4 7.2 l-3 0 l0 -1.2 l9.8 -26.8 l3.4 0 l9.8 26.8 l0 1.2 l-3 0 l-2.4 -7.2 l-12.2 0 z M281.555 30.2 l-5 -14.6 l-0.2 0 l-5 14.6 l10.2 0 z M306.46000000000004 26.8 l-10 0 l0 10.6 l10 0 c2.2 0 4 -1.8 4 -4 l0 -2.6 c0 -2.2 -1.8 -4 -4 -4 z M308.66 25 l0 0.2 s4.8 0.8 4.8 5.6 l0 2.6 c0 3.8 -2.8 6.6 -7 6.6 l-13 0 l0 -28 l11.6 0 c4.2 0 7 2.8 7 6.6 l0 1.6 c0 4 -3.4 4.8 -3.4 4.8 z M305.06000000000006 14.600000000000001 l-8.6 0 l0 9.6 l8.6 0 c2.2 0 4 -1.8 4 -4 l0 -1.6 c0 -2.2 -1.8 -4 -4 -4 z M318.565 19.8 l0 -1.2 c0 -3.8 2.8 -6.6 7 -6.6 l11 0 l0 1.8 l-0.8 0.8 l-10.2 0 c-2.2 0 -4 1.8 -4 4 l0 1.2 c0 2.2 1.2 3.36 3.2 3.8 l7.4 1.6 c2.8 0.6 5 2.8 5 6.4 l0 1.8 c0 3.8 -2.8 6.6 -7 6.6 l-12 0 l0 -2.6 l12 0 c2.2 0 4 -1.8 4 -4 l0 -1.8 c0 -2.2 -1.2 -3.36 -3.2 -3.8 l-7.4 -1.6 c-2.8 -0.6 -5 -2.8 -5 -6.4 z "/></g><g id="SvgjsG1087" featureKey="sloganFeature-0" transform="matrix(0.6653416636342611,0,0,0.6653416636342611,110.6693168313613,57.007950018194435)" fill="#fff"><path d="M10.2 20 l-6.8 -11.5 l-0.1 0 l0.2 2.6 l0 8.9 l-1.5 0 l0 -14 l1.6 0 l6.8 11.5 l0.1 0 l-0.2 -2.6 l0 -8.9 l1.5 0 l0 14 l-1.6 0 z M16.8 16.4 l-1.2 3.6 l-1.5 0 l0 -0.6 l4.9 -13.4 l1.7 0 l4.9 13.4 l0 0.6 l-1.5 0 l-1.2 -3.6 l-6.1 0 z M22.4 15.1 l-2.5 -7.3 l-0.1 0 l-2.5 7.3 l5.1 0 z M31.099999999999998 18.2 l0.1 0 l4 -12.2 l1.5 0 l0 0.6 l-4.6 13.4 l-1.9 0 l-4.6 -13.4 l0 -0.6 l1.5 0 z M40.5 20 l-1.5 0 l0 -14 l1.5 0 l0 14 z M53.8 20 l-6.2 0 c-2.1 0 -3.5 -1.4 -3.5 -3.3 l0 -7.4 c0 -1.9 1.4 -3.3 3.5 -3.3 l5.8 0 l0 0.9 l-0.4 0.4 l-5.4 0 c-1.1 0 -2 0.9 -2 2 l0 7.4 c0 1.1 0.9 2 2 2 l4.7 0 l0 -6.3 l1.5 0 l0 7.6 z M58.4 16.4 l-1.2 3.6 l-1.5 0 l0 -0.6 l4.9 -13.4 l1.7 0 l4.9 13.4 l0 0.6 l-1.5 0 l-1.2 -3.6 l-6.1 0 z M64 15.1 l-2.5 -7.3 l-0.1 0 l-2.5 7.3 l5.1 0 z M73.6 7.300000000000001 l0 12.7 l-1.5 0 l0 -12.7 l-4.4 0 l0 -1.3 l10.3 0 l0 0.9 l-0.4 0.4 l-4 0 z M81.7 20 l-1.5 0 l0 -14 l1.5 0 l0 14 z M93.9 20 l-6.8 -11.5 l-0.1 0 l0.2 2.6 l0 8.9 l-1.5 0 l0 -14 l1.6 0 l6.8 11.5 l0.1 0 l-0.2 -2.6 l0 -8.9 l1.5 0 l0 14 l-1.6 0 z M108.8 20 l-6.2 0 c-2.1 0 -3.5 -1.4 -3.5 -3.3 l0 -7.4 c0 -1.9 1.4 -3.3 3.5 -3.3 l5.8 0 l0 0.9 l-0.4 0.4 l-5.4 0 c-1.1 0 -2 0.9 -2 2 l0 7.4 c0 1.1 0.9 2 2 2 l4.7 0 l0 -6.3 l1.5 0 l0 7.6 z M121 7.300000000000001 l0 12.7 l-1.5 0 l0 -12.7 l-4.4 0 l0 -1.3 l10.3 0 l0 0.9 l-0.4 0.4 l-4 0 z M136 6 l1.5 0 l0 14 l-1.5 0 l0 -6.5 l-6.9 0 l0 6.5 l-1.5 0 l0 -14 l1.5 0 l0 6.2 l6.9 0 l0 -6.2 z M141.5 20 l0 -14 l9.1 0 l0 0.9 l-0.4 0.4 l-7.2 0 l0 4.9 l5.7 0 l0 1.3 l-5.7 0 l0 5.2 l7.6 0 l0 1.3 l-9.1 0 z M159.5 20 l-1.5 0 l0 -14 l9.1 0 l0 0.9 l-0.4 0.4 l-7.2 0 l0 5.6 l5.6 0 l0 1.3 l-5.6 0 l0 5.8 z M175.8 20.2 l-3 0 c-2.1 0 -3.5 -1.4 -3.5 -3.3 l0 -10.9 l1.5 0 l0 10.9 c0 1.1 0.9 2 2 2 l3 0 c1.1 0 2 -0.9 2 -2 l0 -10.9 l1.5 0 l0 10.9 c0 1.9 -1.4 3.3 -3.5 3.3 z M187.4 7.300000000000001 l0 12.7 l-1.5 0 l0 -12.7 l-4.4 0 l0 -1.3 l10.3 0 l0 0.9 l-0.4 0.4 l-4 0 z M200.5 20.2 l-3 0 c-2.1 0 -3.5 -1.4 -3.5 -3.3 l0 -10.9 l1.5 0 l0 10.9 c0 1.1 0.9 2 2 2 l3 0 c1.1 0 2 -0.9 2 -2 l0 -10.9 l1.5 0 l0 10.9 c0 1.9 -1.4 3.3 -3.5 3.3 z M209.5 20 l-1.5 0 l0 -14 l6.2 0 c2.1 0 3.5 1.4 3.5 3.3 l0 1.9 c0 2.8 -2.7 3.2 -2.7 3.2 l3.1 5 l0 0.6 l-1.5 0 l-3.1 -5.5 l-4 0 l0 5.5 z M214.2 7.300000000000001 l-4.7 0 l0 5.9 l4.7 0 c1.1 0 2 -0.9 2 -2 l0 -1.9 c0 -1.1 -0.9 -2 -2 -2 z M221.1 20 l0 -14 l9.1 0 l0 0.9 l-0.4 0.4 l-7.2 0 l0 4.9 l5.7 0 l0 1.3 l-5.7 0 l0 5.2 l7.6 0 l0 1.3 l-9.1 0 z"/></g>
			</g>
		</svg>
	