<?xml version="1.0" encoding="UTF-8"?>
<svg id="Layer_1" data-name="Layer 1" xmlns="http://www.w3.org/2000/svg" viewBox="0 0 546.38 546.38">
  <defs>
    <style>
      .cls-1 {
        fill: #fff;
      }
    </style>
  </defs>
  <g id="SvgjsG1084">
    <path class="cls-1" d="M298.05,273.19c0,13.73-11.13,24.85-24.85,24.85s-24.85-11.13-24.85-24.85,11.13-24.85,24.85-24.85c13.72.02,24.84,11.13,24.85,24.85ZM505.17,281.48h41.21c-4.54,144.38-120.52,260.37-264.91,264.91v-41.21c0-4.58-3.71-8.28-8.28-8.28s-8.28,3.71-8.28,8.28v41.21C120.52,541.84,4.54,425.86,0,281.48h41.21c4.58,0,8.28-3.71,8.28-8.28s-3.71-8.28-8.28-8.28H0C4.54,120.52,120.52,4.54,264.91,0v41.21c0,4.58,3.71,8.28,8.28,8.28s8.28-3.71,8.28-8.28V0c144.38,4.54,260.37,120.52,264.91,264.91h-41.21c-4.58,0-8.28,3.71-8.28,8.28s3.71,8.28,8.28,8.28ZM407.93,138.45c-2.55-2.56-6.46-3.16-9.66-1.5l-169.89,87.87c-1.52.79-2.76,2.03-3.55,3.55l-87.87,169.89c-2.1,4.06-.51,9.06,3.55,11.16,2.39,1.23,5.22,1.23,7.61,0l169.89-87.87c1.52-.79,2.76-2.03,3.55-3.55l87.87-169.89c1.66-3.2,1.05-7.11-1.5-9.66Z"/>
  </g>
</svg>