<?xml version="1.0" encoding="UTF-8"?>
<svg id="Layer_1" xmlns="http://www.w3.org/2000/svg" version="1.1" viewBox="0 0 3147.78 931.03">
  <!-- Generator: Adobe Illustrator 29.4.0, SVG Export Plug-In . SVG Version: 2.1.0 Build 152)  -->
  <defs>
    <style>
      .st0 {
        fill-opacity: 0;
      }
    </style>
  </defs>
  <g id="SvgjsG1084">
    <path d="M371.94,465.31c0,13.73-11.13,24.85-24.85,24.85s-24.85-11.13-24.85-24.85,11.13-24.85,24.85-24.85c13.72.02,24.84,11.13,24.85,24.85ZM579.06,473.59h41.21c-4.54,144.38-120.52,260.37-264.91,264.91v-41.21c0-4.58-3.71-8.28-8.28-8.28s-8.28,3.71-8.28,8.28v41.21c-144.38-4.54-260.37-120.52-264.91-264.91h41.21c4.58,0,8.28-3.71,8.28-8.28s-3.71-8.28-8.28-8.28h-41.21c4.54-144.38,120.52-260.37,264.91-264.91v41.21c0,4.58,3.71,8.28,8.28,8.28s8.28-3.71,8.28-8.28v-41.21c144.38,4.54,260.37,120.52,264.91,264.91h-41.21c-4.58,0-8.28,3.71-8.28,8.28s3.71,8.28,8.28,8.28ZM481.82,330.57c-2.55-2.56-6.46-3.16-9.66-1.5l-169.89,87.87c-1.52.79-2.76,2.03-3.55,3.55l-87.87,169.89c-2.1,4.06-.51,9.06,3.55,11.16,2.39,1.23,5.22,1.23,7.61,0l169.89-87.87c1.52-.79,2.76-2.03,3.55-3.55l87.87-169.89c1.66-3.2,1.05-7.11-1.5-9.66Z"/>
  </g>
  <g id="SvgjsG1085">
    <rect class="st0" x="3066.5" y="73.89" width="7.39" height="7.39"/>
    <rect x="768.47" y="73.89" width="22.17" height="783.25"/>
  </g>
  <g id="SvgjsG1086">
    <path d="M901.48,275.85h18.37v155.51h91.84v15.92h-110.21v-171.43ZM1039.27,409.32v-95.51c0-23.27,17.14-40.41,42.86-40.41h42.86c25.71,0,42.86,17.14,42.86,40.41v95.51c0,23.27-17.14,40.41-42.86,40.41h-42.86c-25.71,0-42.86-17.14-42.86-40.41h0ZM1149.47,409.32v-95.51c0-13.47-11.02-24.49-24.49-24.49h-42.86c-13.47,0-24.49,11.02-24.49,24.49v95.51c0,13.47,11.02,24.49,24.49,24.49h42.86c13.47,0,24.49-11.02,24.49-24.49ZM1217.46,447.28v-171.43h78.37c25.71,0,42.86,17.14,42.86,40.41v90.61c0,23.27-17.14,40.41-42.86,40.41h-78.37ZM1235.83,291.77v139.59h60c13.47,0,24.49-11.02,24.49-24.49v-90.61c0-13.47-11.02-24.49-24.49-24.49h-60ZM1388.31,447.28v-171.43h111.43v11.02l-4.9,4.9h-88.16v60h69.8v15.92h-69.8v63.67h93.06v15.92h-111.43,0ZM1526.1,323.6v-7.35c0-23.27,17.14-40.41,42.86-40.41h67.35v11.02l-4.9,4.9h-62.45c-13.47,0-24.49,11.02-24.49,24.49v7.35c0,13.47,7.35,20.57,19.59,23.27l45.31,9.8c17.14,3.67,30.61,17.14,30.61,39.18v11.02c0,23.27-17.14,40.41-42.86,40.41h-73.47v-15.92h73.47c13.47,0,24.49-11.02,24.49-24.49v-11.02c0-13.47-7.35-20.57-19.59-23.27l-45.31-9.8c-17.14-3.67-30.61-17.14-30.61-39.18ZM1730.01,291.77v155.51h-18.37v-155.51h-53.88v-15.92h126.12v11.02l-4.9,4.9h-48.98ZM1811.48,409.32v-95.51c0-23.27,17.14-40.41,42.86-40.41h42.86c25.71,0,42.86,17.14,42.86,40.41v95.51c0,23.27-17.14,40.41-42.86,40.41h-42.86c-25.71,0-42.86-17.14-42.86-40.41ZM1921.68,409.32v-95.51c0-13.47-11.02-24.49-24.49-24.49h-42.86c-13.47,0-24.49,11.02-24.49,24.49v95.51c0,13.47,11.02,24.49,24.49,24.49h42.86c13.47,0,24.49-11.02,24.49-24.49ZM2090.08,447.28l-83.27-140.82h-1.22l2.45,31.84v108.98h-18.37v-171.43h19.59l83.27,140.82h1.22l-2.45-31.84v-108.98h18.37v171.43h-19.59ZM2164.2,447.28v-171.43h111.43v11.02l-4.9,4.9h-88.16v60h69.8v15.92h-69.8v63.67h93.06v15.92h-111.43ZM2377.32,275.85h18.37v155.51h91.84v15.92h-110.21v-171.43h0ZM2532.25,403.2l-14.69,44.08h-18.37v-7.35l60-164.08h20.82l60,164.08v7.35h-18.37l-14.69-44.08h-74.7,0ZM2600.83,387.28l-30.61-89.39h-1.22l-30.61,89.39h62.45ZM2753.31,366.46h-61.23v64.9h61.23c13.47,0,24.49-11.02,24.49-24.49v-15.92c0-13.47-11.02-24.49-24.49-24.49h0ZM2766.78,355.44v1.22s29.39,4.9,29.39,34.29v15.92c0,23.27-17.14,40.41-42.86,40.41h-79.59v-171.43h71.02c25.71,0,42.86,17.14,42.86,40.41v9.8c0,24.49-20.82,29.39-20.82,29.39ZM2744.74,291.77h-52.65v58.78h52.65c13.47,0,24.49-11.02,24.49-24.49v-9.8c0-13.47-11.02-24.49-24.49-24.49ZM2827.42,323.6v-7.35c0-23.27,17.14-40.41,42.86-40.41h67.35v11.02l-4.9,4.9h-62.45c-13.47,0-24.49,11.02-24.49,24.49v7.35c0,13.47,7.35,20.57,19.59,23.27l45.31,9.8c17.14,3.67,30.61,17.14,30.61,39.18v11.02c0,23.27-17.14,40.41-42.86,40.41h-73.47v-15.92h73.47c13.47,0,24.49-11.02,24.49-24.49v-11.02c0-13.47-7.35-20.57-19.59-23.27l-45.31-9.8c-17.14-3.67-30.61-17.14-30.61-39.18Z"/>
  </g>
  <g id="SvgjsG1087">
    <path d="M941.79,593.46l-33.43-56.54h-.49l.98,12.78v43.76h-7.37v-68.83h7.87l33.43,56.54h.49l-.98-12.78v-43.76h7.37v68.83h-7.87ZM974.24,575.76l-5.9,17.7h-7.37v-2.95l24.09-65.88h8.36l24.09,65.88v2.95h-7.37l-5.9-17.7h-29.99ZM1001.77,569.37l-12.29-35.89h-.49l-12.29,35.89h25.07ZM1044.54,584.61h.49l19.67-59.98h7.37v2.95l-22.62,65.88h-9.34l-22.62-65.88v-2.95h7.37l19.67,59.98ZM1090.76,593.46h-7.37v-68.83h7.37v68.83ZM1156.14,593.46h-30.48c-10.32,0-17.21-6.88-17.21-16.22v-36.38c0-9.34,6.88-16.22,17.21-16.22h28.51v4.42l-1.97,1.97h-26.55c-5.41,0-9.83,4.42-9.83,9.83v36.38c0,5.41,4.42,9.83,9.83,9.83h23.11v-30.97h7.37v37.36h0ZM1178.76,575.76l-5.9,17.7h-7.37v-2.95l24.09-65.88h8.36l24.09,65.88v2.95h-7.37l-5.9-17.7h-29.99ZM1206.29,569.37l-12.29-35.89h-.49l-12.29,35.89h25.07ZM1253.49,531.02v62.44h-7.37v-62.44h-21.63v-6.39h50.64v4.42l-1.97,1.97h-19.67ZM1293.31,593.46h-7.37v-68.83h7.37v68.83ZM1353.29,593.46l-33.43-56.54h-.49l.98,12.78v43.76h-7.37v-68.83h7.87l33.43,56.54h.49l-.98-12.78v-43.76h7.37v68.83h-7.87ZM1426.54,593.46h-30.48c-10.32,0-17.21-6.88-17.21-16.22v-36.38c0-9.34,6.88-16.22,17.21-16.22h28.51v4.42l-1.97,1.97h-26.55c-5.41,0-9.83,4.42-9.83,9.83v36.38c0,5.41,4.42,9.83,9.83,9.83h23.11v-30.97h7.37v37.36ZM1486.52,531.02v62.44h-7.37v-62.44h-21.63v-6.39h50.64v4.42l-1.97,1.97h-19.67ZM1560.26,524.63h7.37v68.83h-7.37v-31.96h-33.92v31.96h-7.37v-68.83h7.37v30.48h33.92v-30.48ZM1587.3,593.46v-68.83h44.74v4.42l-1.97,1.97h-35.4v24.09h28.02v6.39h-28.02v25.56h37.36v6.39h-44.74ZM1675.8,593.46h-7.37v-68.83h44.74v4.42l-1.97,1.97h-35.4v27.53h27.53v6.39h-27.53v28.51h0ZM1755.93,594.44h-14.75c-10.32,0-17.21-6.88-17.21-16.22v-53.59h7.37v53.59c0,5.41,4.42,9.83,9.83,9.83h14.75c5.41,0,9.83-4.42,9.83-9.83v-53.59h7.37v53.59c0,9.34-6.88,16.22-17.21,16.22ZM1812.96,531.02v62.44h-7.37v-62.44h-21.63v-6.39h50.64v4.42l-1.97,1.97h-19.67ZM1877.37,594.44h-14.75c-10.32,0-17.21-6.88-17.21-16.22v-53.59h7.37v53.59c0,5.41,4.42,9.83,9.83,9.83h14.75c5.41,0,9.83-4.42,9.83-9.83v-53.59h7.37v53.59c0,9.34-6.88,16.22-17.21,16.22ZM1921.61,593.46h-7.37v-68.83h30.48c10.32,0,17.21,6.88,17.21,16.22v9.34c0,13.77-13.27,15.73-13.27,15.73l15.24,24.58v2.95h-7.37l-15.24-27.04h-19.67v27.04ZM1944.72,531.02h-23.11v29.01h23.11c5.41,0,9.83-4.42,9.83-9.83v-9.34c0-5.41-4.42-9.83-9.83-9.83ZM1978.64,593.46v-68.83h44.74v4.42l-1.97,1.97h-35.4v24.09h28.02v6.39h-28.02v25.56h37.36v6.39h-44.74Z"/>
  </g>
</svg>